<svg id="coffee-cup-icon" viewBox="0 0 247 256" version="1.1" xmlns="http://www.w3.org/2000/svg">
    <title>coffee-cup-icon</title>
    <defs></defs>
    <g id="coffee-cup-icon" stroke="none" stroke-width="1" fill="none" fill-rule="evenodd">
        <path d="M7,128 C38.9666047,128 108.560567,128 215.781887,128 C219.111742,211.867725 184.314761,252.137545 111.390944,248.809461 C7,248.809461 7,166.938587 7,128 Z" id="Path-2" stroke-width="13" stroke-linecap="round" stroke-linejoin="round"></path>
        <path d="M27,166 C35.6666667,206 55.3333333,226 86,226" id="Path-3"  stroke-width="13" stroke-linecap="round" stroke-linejoin="round"></path>
        <path d="M215.888488,137.48712 C235.776976,130.528704 266.604133,200.112869 196,219" id="Path-4"  stroke-width="13"></path>
        <g id="Group-2" transform="translate(69.000000, 4.000000)"  stroke-linecap="round" stroke-width="8">
            <path d="M12,43 C12,43 -13,57 12,86" id="Path-5"></path>
            <path d="M22.6666667,0 C22.6666667,0 -1.33333333,21.5 22.6666667,43" id="Path-5-Copy" transform="translate(17.333333, 21.500000) scale(-1, 1) translate(-17.333333, -21.500000) "></path>
        </g>
        <g id="Group" transform="translate(126.000000, 4.000000)" stroke-linecap="round" stroke-width="8">
            <path d="M11.1111111,43 C11.1111111,43 -13.8888889,57 11.1111111,86" id="Path-5-Copy-3"></path>
            <path d="M21.6666667,0 C21.6666667,0 -2.33333333,21.5 21.6666667,43" id="Path-5-Copy-2" transform="translate(16.333333, 21.500000) scale(-1, 1) translate(-16.333333, -21.500000) "></path>
        </g>
    </g>
</svg>
