<svg xmlns="http://www.w3.org/2000/svg" id="coffee-cup-icon" version="1.1" viewBox="0 0 247 256"><title>coffee-cup-icon</title><g id="coffee-cup-icon" fill="none" fill-rule="evenodd" stroke="none" stroke-width="1"><path id="Path-2" stroke-linecap="round" stroke-linejoin="round" stroke-width="13" d="M7,128 C38.9666047,128 108.560567,128 215.781887,128 C219.111742,211.867725 184.314761,252.137545 111.390944,248.809461 C7,248.809461 7,166.938587 7,128 Z"/><path id="Path-3" stroke-linecap="round" stroke-linejoin="round" stroke-width="13" d="M27,166 C35.6666667,206 55.3333333,226 86,226"/><path id="Path-4" stroke-width="13" d="M215.888488,137.48712 C235.776976,130.528704 266.604133,200.112869 196,219"/><g id="Group-2" stroke-linecap="round" stroke-width="8" transform="translate(69.000000, 4.000000)"><path id="Path-5" d="M12,43 C12,43 -13,57 12,86"/><path id="Path-5-Copy" d="M22.6666667,0 C22.6666667,0 -1.33333333,21.5 22.6666667,43" transform="translate(17.333333, 21.500000) scale(-1, 1) translate(-17.333333, -21.500000)"/></g><g id="Group" stroke-linecap="round" stroke-width="8" transform="translate(126.000000, 4.000000)"><path id="Path-5-Copy-3" d="M11.1111111,43 C11.1111111,43 -13.8888889,57 11.1111111,86"/><path id="Path-5-Copy-2" d="M21.6666667,0 C21.6666667,0 -2.33333333,21.5 21.6666667,43" transform="translate(16.333333, 21.500000) scale(-1, 1) translate(-16.333333, -21.500000)"/></g></g></svg>