<svg xmlns="http://www.w3.org/2000/svg" xmlns:xlink="http://www.w3.org/1999/xlink" width="24" height="13" version="1.1" viewBox="0 0 24 13"><title>materialize</title><desc>Created with Sketch.</desc><g id="materialize" fill="none" fill-rule="evenodd" stroke="none" stroke-width="1"><g transform="translate(0.000000, -6.000000)"><path id="Combined-Shape-Copy" fill="#000" stroke="#000" d="M6.14668986,17.6170378 C6.13855529,17.6236289 6.13066411,17.628527 6.12302543,17.6317194 L4.87093301,18.1549982 L6.16321742,18.5691928 C6.19805521,18.5801691 6.19805521,18.5801691 6.23317034,18.5904787 L6.37168142,18.110047 L6.37168142,17.610047 L6.25822075,17.610047 C6.20264539,17.6122604 6.23311995,17.6122604 6.26235675,17.6172927 L6.14668986,17.6170378 Z M3.03906776,17.6101915 L2.97345133,17.610047 C2.99155071,17.6105503 2.99155071,17.6105503 3.00938306,17.6130236 L2.76106195,17.6061947 L2.76106195,18.1061947 L2.94675729,18.570433 C2.99050274,18.5529349 3.03327423,18.5324361 3.07502766,18.5090713 L3.87340409,18.0623089 L3.06624672,17.6316134 C3.05759397,17.6269963 3.04852277,17.6198461 3.03906776,17.6101915 Z M1.67598371,12.8716814 C1.26730006,12.2176459 0.712854893,11.8733446 0.00116749046,11.8716828 L0,12.8716814 L1.67598371,12.8716814 Z M3.80453344,12.8716814 L4.03539823,12.8716814 L4.03539823,12.3716814 L3.81179143,12.818895 C3.79110794,12.8085533 3.79179841,12.8268126 3.80453344,12.8716814 Z M6.38856162,6.5 C6.42974276,6.44404534 6.47118133,6.39521749 6.51284543,6.35355339 L6.15929204,6.5 L6.38856162,6.5 Z M9.96542068,6.5 L10.1946903,6.5 L9.84113687,6.35355339 C9.88280097,6.39521749 9.92423954,6.44404534 9.96542068,6.5 Z M13.8221899,6.5 C13.8633711,6.44404534 13.9048096,6.39521749 13.9464737,6.35355339 L13.5929204,6.5 L13.8221899,6.5 Z M17.399049,6.5 L17.6283186,6.5 L17.2747652,6.35355339 C17.3164293,6.39521749 17.3578679,6.44404534 17.399049,6.5 Z M20.201924,12.8716814 C20.2233593,12.8157052 20.2280977,12.7989504 20.1882086,12.818895 L19.9646018,12.3716814 L19.9646018,12.8716814 L20.201924,12.8716814 Z M22.3240163,12.8716814 L24,12.8716814 L23.9988325,11.8716828 C23.2871451,11.8733446 22.7326999,12.2176459 22.3240163,12.8716814 Z M17.6420677,17.610047 L17.6283186,17.610047 L17.6283186,18.110047 L17.7668297,18.5904787 C17.7750835,18.5880889 17.7750835,18.5880889 17.7833224,18.5856624 L17.6420677,17.610047 Z"/></g></g></svg>