
<svg id="avatar" viewBox="0 0 1565 2171" version="1.1" xmlns="http://www.w3.org/2000/svg" >
    <!-- Generator: Sketch 50.2 (55047) - http://www.bohemiancoding.com/sketch -->
    <title>avatar/luc/v1</title>
    <desc>Created with Sketch.</desc>
    <defs></defs>
    <g id="avatar/luc/v1" stroke="none" stroke-width="1" fill="none" fill-rule="evenodd">
        <g id="Group-3" transform="translate(66.000000, 54.000000)">
            <g id="Group-2">
                <path d="M1179.40216,1445 L1439.90691,1379.85885 C1463.92719,1373.8524 1478.58269,1349.56945 1472.70342,1325.51772 L1395.78952,1010.8676 C1388.00162,979.007798 1365.08582,952.992129 1334.46352,941.245929 L971.449932,802 L753.5,802 L535.550068,802 L172.536479,941.245929 C141.914184,952.992129 118.998375,979.007798 111.210482,1010.8676 L34.2965817,1325.51772 C28.4173137,1349.56945 43.0728082,1373.8524 67.0930926,1379.85885 L327.597839,1445 L731.331435,2103.82467 C738.834275,2116.06803 754.841733,2119.91098 767.085093,2112.40814 C770.583435,2110.26432 773.524749,2107.32301 775.668565,2103.82467 L1179.40216,1445 Z" id="Path-23-Copy-4" fill="#48505B"></path>
                <path d="M918.377678,634 C919.71234,729.333333 933.726291,783 960.419532,795 C987.112772,807 918.044013,952.333333 753.213254,1231 L751.786746,1231 C586.955987,952.333333 517.887228,807 544.580468,795 C571.273709,783 585.28766,729.333333 586.622322,634" id="Path-22-Copy-9" stroke="#979797" fill="#B4A289"></path>
                <path d="M586,639 C777.333333,635 888.333333,633 919,633 C919,658 914.161699,776 965,800 C971,809 963.364263,876.333333 798.828066,1155 C734.212636,1016.33333 663.269947,844.333333 586,639 Z" id="Path-22-Copy-8" fill="#9D896E" opacity="0.684263393"></path>
                <path d="M617.254017,1491.73213 L617.806519,1490.44956 L617.806519,1497.12 C617.806519,1558.19774 667.728299,1607.712 729.311111,1607.712 L785.207407,1607.712 C846.790219,1607.712 896.712,1558.19774 896.712,1497.12 L896.712,1360 C896.712,1357.94992 895.050081,1356.288 893,1356.288 L621.518519,1356.288 C619.468438,1356.288 617.806519,1357.94992 617.806519,1360 L617.806519,1389.13044 L617.254017,1387.84787 C612.341323,1376.44363 601.021981,1368.888 588.3,1368.888 L567,1368.888 C559.979356,1368.888 554.288,1374.57936 554.288,1381.6 L554.288,1497.98 C554.288,1505.00064 559.979356,1510.692 567,1510.692 L588.3,1510.692 C601.021981,1510.692 612.341323,1503.13637 617.254017,1491.73213 Z M578.974074,1383.432 L596.060075,1383.432 C606.565062,1383.432 615.072075,1392.59144 615.072075,1403.88 L615.072075,1476.96 C615.072075,1488.24856 606.565062,1497.408 596.060075,1497.408 L578.974074,1497.408 C572.739884,1497.408 567.686074,1492.35419 567.686074,1486.12 L567.686074,1394.72 C567.686074,1388.48581 572.739884,1383.432 578.974074,1383.432 Z" id="Combined-Shape-Copy-4" stroke="#FBFBFB" stroke-width="0.576" fill="#FBFBFB"></path>
                <path d="M50,1368 L3.69048128,1628.70348 C-1.81525602,1659.6985 18.8478971,1689.28822 49.8429254,1694.79396 C60.6194903,1696.70823 71.7193302,1695.4793 81.8161454,1691.254 L440.109009,1541.31635 L584,1541.31635 C594.49341,1541.31635 603,1532.80976 603,1522.31635 L603,1371 C603,1337.86292 576.137085,1311 543,1311 L471.155154,1311 C415.926679,1311 371.155154,1355.77153 371.155154,1411 L371.155154,1435.79236 L286,1435.79236 L50,1368 Z" id="Path-24-Copy-9" fill="#B4A289"></path>
                <path d="M8.40476855,1583.02845 L0.929267174,1631.58605 C-3.86072105,1662.69972 17.4788456,1691.8054 48.5925233,1696.59538 C59.0053762,1698.19846 69.6587895,1696.88422 79.3698673,1692.79859 L440.110886,1541.02845 L584,1541.02845 C594.49341,1541.02845 603,1532.52186 603,1522.02845 C603,1479.3523 603,1436.67615 603,1394 C494.407257,1466.24017 296.208847,1529.24965 8.40476855,1583.02845 Z" id="Path-24-Copy-8" fill="#A49176"></path>
                <g id="coffee-steam-copy-4" transform="translate(713.000000, 1226.000000)" opacity="0.772433036" stroke="#979797" stroke-linecap="round" stroke-width="14">
                    <path d="M14.3577647,0 C28.5474118,18.9031447 28.5474118,35.6679245 14.3577647,50.2943396 C-6.92670592,72.2339623 -2.51867946,88.0150943 14.3577647,102" id="Path-25"></path>
                    <path d="M65.3577647,0 C79.5474118,18.9031447 79.5474118,35.6679245 65.3577647,50.2943396 C44.0732941,72.2339623 48.4813205,88.0150943 65.3577647,102" id="Path-25-Copy"></path>
                </g>
                <path d="M946,299 L957.626604,278.330482 C961.563593,271.331391 968.969611,267 977,267 L977,267 C984.179702,267 990,272.820298 990,280 L990,349.224184 C990,352.385236 989.464728,355.523466 988.416884,358.505792 L965.988916,422.339239 C964.797374,425.73055 961.594546,428 958,428 L958,428 C954.64213,428 951.877243,425.360723 951.721232,422.006479 L946,299 Z" id="Path-21-Copy-12" fill="#B4A289"></path>
                <path d="M508,299 L519.626604,278.330482 C523.563593,271.331391 530.969611,267 539,267 L539,267 C546.179702,267 552,272.820298 552,280 L552,349.224184 C552,352.385236 551.464728,355.523466 550.416884,358.505792 L527.988916,422.339239 C526.797374,425.73055 523.594546,428 520,428 L520,428 C516.64213,428 513.877243,425.360723 513.721232,422.006479 L508,299 Z" id="Path-21-Copy-11" fill="#B4A289" transform="translate(530.000000, 347.500000) scale(-1, 1) translate(-530.000000, -347.500000) "></path>
                <path d="M954,183 L954,551.310801 C954,563.56718 950.871246,575.620682 944.910066,586.329705 L845.002743,765.809231 C842.531893,770.248016 837.850379,773 832.77023,773 L750,773 L667.22977,773 C662.149621,773 657.468107,770.248016 654.997257,765.809231 L555.089934,586.329705 C549.128754,575.620682 546,563.56718 546,551.310801 L546,183 C546,127.771525 590.771525,83 646,83 L750,83 L854,83 C909.228475,83 954,127.771525 954,183 Z" id="Path-17-Copy-9" fill="#B4A289"></path>
                <path d="M955,181 L955,549.310801 C955,561.56718 951.871246,573.620682 945.910066,584.329705 L846.002743,763.809231 C843.531893,768.248016 838.850379,771 833.77023,771 L751,771 L751,81 L855,81 C910.228475,81 955,125.771525 955,181 Z" id="Path-17-Copy-8" fill="#A38F73" opacity="0.562611607"></path>
                <path d="M750.662551,614.366985 C817.662551,614.366985 863.662551,555.366985 846.662551,566.366985 C833.329218,570.366985 801.995884,583.700318 770.662551,572.366985 L750.662551,583.366985 L729.775328,572.366985 C698.441994,583.700318 682.995884,592.366985 669.662551,588.366985 C652.662551,577.366985 682.775328,614.366985 749.775328,614.366985" id="Path-19-Copy-8" fill="#977568"></path>
                <path d="M846.887223,566.366985 C833.55389,570.366985 802.220556,583.700318 770.887223,572.366985 L750.887223,583.366985 C751.478705,576.033652 751.478705,586.366985 750.887223,614.366985 C817.887223,614.366985 863.887223,555.366985 846.887223,566.366985 Z" id="Path-19-Copy-7" fill="#885C56" opacity="0.663392857"></path>
                <g id="hair-copy-4" transform="translate(493.000000, 0.000000)">
                    <path d="M383,548 C370.333333,548 338.666667,532.333333 288,501 L257.879003,519 L225.879003,501 C175.212337,532.333333 143.54567,548 130.879003,548 C111.879003,548 242.879003,573 257.879003,561 C272.879003,573 402,548 383,548 Z" id="Path-18" fill="#8B7C5C"></path>
                    <path d="M12.1298701,284 L37.2787108,233.761212 L36.6753927,146 L200.142857,114 L362.599499,146 L374.126051,248.761212 L399.274892,299 L408.372294,377 L429.599567,261.5 L436.675325,294 L436.675325,195.696998 C436.675325,194.592428 437.570755,193.696998 438.675325,193.696998 C439.501045,193.696998 440.241881,194.204444 440.540219,194.974385 L456.059348,235.025615 C456.458436,236.055568 457.616903,236.566984 458.646855,236.167896 C459.416796,235.869558 459.924242,235.128723 459.924242,234.303002 L459.924242,146 L413.131092,95.1694002 C412.382985,94.3567443 412.435312,93.091496 413.247968,92.3433889 C413.757389,91.8744308 414.473132,91.7023255 415.140065,91.8884209 L441.54434,99.2560445 C442.608268,99.5529138 443.711412,98.93109 444.008282,97.8671622 C444.186109,97.2298588 444.037239,96.545853 443.610631,96.040102 L363.378701,0.923757825 C362.899572,0.35574169 362.145015,0.100201248 361.419336,0.260193533 L275.312117,19.2444752 C274.233453,19.4822912 273.166234,18.8006487 272.928418,17.7219841 C272.741214,16.8728798 273.124064,16.0001039 273.875573,15.562773 L289.748657,6.32563373 C290.70334,5.77006788 291.026889,4.54576898 290.471323,3.59108559 C290.087885,2.93218629 289.363212,2.54857412 288.602735,2.60193124 L155.544958,11.9376174 C154.979042,11.9773236 154.456614,12.2554962 154.107764,12.7028675 L134.026556,38.4553566 C133.347331,39.3264062 132.090585,39.481911 131.219536,38.8026862 C130.565722,38.2928573 130.294258,37.4324934 130.537081,36.6397551 L135.718002,19.7257692 C136.041506,18.6696354 135.447592,17.5512177 134.391459,17.2277135 C133.790333,17.0435828 133.137613,17.1528259 132.629202,17.5226554 L3.70574612,111.30436 C1.37746245,112.998004 -8.13709298e-13,115.703349 -8.08242362e-13,118.58247 L-9.09494702e-13,377 L12.1298701,284 Z" id="Path-21-Copy-3" fill="#776551" transform="translate(229.962121, 188.500000) scale(-1, 1) translate(-229.962121, -188.500000) "></path>
                    <path d="M257,773 L173.139148,773 C169.397507,773 165.941136,771.087335 164.076037,767.984711 L119,693 C144.090909,654.333333 158.030303,620.333333 160.818182,591 C178.939394,620.333333 211,635 257,635 C303,635 335.060606,620.333333 353.181818,591 C355.969697,620.333333 369.909091,654.333333 395,693 L349.923963,767.984711 C348.058864,771.087335 344.602493,773 340.860852,773 L257,773" id="Path-20" fill="#8B7C5C"></path>
                    <path d="M290,301.300475 L290.000001,337.607816 C290.000001,339.816954 291.790862,341.607815 294,341.607815 C294.592584,341.607815 295.177765,341.476151 295.713243,341.222341 C371.205691,305.439797 421.63461,309.699017 447,354 C441.727151,300.522893 390.514289,281.640153 293.361415,297.351778 L293.361415,297.351777 C291.423942,297.665107 290,299.33783 290,301.300475 Z" id="Path-21-Copy" fill="#776551" transform="translate(368.500000, 323.000000) rotate(-2.000000) translate(-368.500000, -323.000000) "></path>
                    <path d="M62,283.300475 L62.0000012,319.607816 C62.0000012,321.816954 63.7908617,323.607815 66,323.607815 C66.592584,323.607815 67.1777653,323.476151 67.7132428,323.222341 C143.205691,287.439797 193.63461,291.699017 219,336 C213.727151,282.522893 162.514289,263.640153 65.3614154,279.351778 L65.3614152,279.351777 C63.4239424,279.665107 62,281.33783 62,283.300475 Z" id="Path-21-Copy-2" fill="#776551" transform="translate(140.500000, 305.000000) scale(-1, 1) rotate(-10.000000) translate(-140.500000, -305.000000) "></path>
                </g>
            </g>
            <g id="eye.v3" transform="translate(817.000000, 354.000000)">
                <circle id="Oval-5" fill="#40503A" cx="35.5" cy="16.5" r="16.5"></circle>
                <path d="M0,14.0819672 C30,-3.25136612 55.3333333,-0.25136612 76,23.0819672" id="Path-15" stroke="#433B2E" stroke-width="6" stroke-linecap="round"></path>
            </g>
            <g id="eye.v3-copy" transform="translate(648.000000, 370.500000) scale(-1, 1) translate(-648.000000, -370.500000) translate(610.000000, 354.000000)">
                <circle id="Oval-5" fill="#40503A" cx="35.5" cy="16.5" r="16.5"></circle>
                <path d="M0,14.0819672 C30,-3.25136612 55.3333333,-0.25136612 76,23.0819672" id="Path-15" stroke="#433B2E" stroke-width="6" stroke-linecap="round"></path>
                <circle id="Oval-6" fill="#D8D8D8" cx="48.5" cy="16.5" r="2.5"></circle>
            </g>
            <circle id="Path" fill="#D8D8D8" cx="838.5" cy="370.5" r="2.5"></circle>
        </g>
    </g>
</svg>
